<svg aria-hidden="true" focusable="false" data-prefix="far" data-icon="bell" class="svg" role="img" xmlns="http://www.w3.org/2000/svg" viewBox="0 0 24 24"><circle cx="14.001" cy="8.502" r="1"></circle>
<circle cx="14.001" cy="11.989" r="1"></circle>
<circle cx="14.001" cy="15.497" r="1"></circle>
<path d="M20 6.509v1.467a4.505 4.505 0 00-2.499 4.029A4.508 4.508 0 0020 16.033v1.457H4v-1.457a4.506 4.506 0 002.497-4.028A4.505 4.505 0 004 7.976V6.509h16m2-2H2v4.997a2.498 2.498 0 010 4.998v4.986h20v-4.986c-1.381 0-2.498-1.119-2.498-2.499S20.619 9.506 22 9.506V4.509z"></path></svg>