<svg aria-hidden="true" focusable="false" data-prefix="far" data-icon="bell" class="svg" role="img" xmlns="http://www.w3.org/2000/svg" viewBox="0 0 24 24"><path d="M12.001 2L2.097 8.6V22h19.807V8.6L12.001 2zm7.922 18.021H4.077V9.66l7.924-5.28 7.922 5.28v10.361z"></path><path d="M9.036 10.627a2.973 2.973 0 00-2.97 2.968 2.974 2.974 0 002.97 2.971 2.964 2.964 0 002.788-1.98h2.152v1.979h1.98v-1.979h1.982v-1.979h-6.115a2.965 2.965 0 00-2.787-1.98zm0 3.959a.99.99 0 11-.002-1.978.99.99 0 01.002 1.978z"></path></svg>