<svg aria-hidden="true" focusable="false" data-prefix="far" data-icon="bell" class="svg" role="img" xmlns="http://www.w3.org/2000/svg" viewBox="0 0 24 24"><path d="M18.753 21.459l-5.502-5.504-2.85 2.851-1.663-1.662-4.315 4.315-1.343-1.344 4.316-4.316-4.004-4.003A4.718 4.718 0 012 8.438c0-1.269.494-2.461 1.392-3.358l.834-.835 7.362 7.362.866-.866c-1.099-1.719-.777-3.972.912-5.661l2.538-2.538 1.343 1.344-2.538 2.537c-.785.787-1.254 1.903-.852 2.916l4.423-4.422 1.343 1.344-4.429 4.428c.31.13.64.188.977.164.646-.043 1.299-.364 1.838-.904a630.937 630.937 0 002.642-2.653L22 8.631s-1.241 1.255-2.647 2.66c-.865.865-1.951 1.383-3.057 1.456a4.027 4.027 0 01-2.501-.66l-.864.862 7.166 7.166-1.344 1.344zM4.291 6.995A2.835 2.835 0 003.9 8.438c0 .762.296 1.478.835 2.015l5.666 5.667 1.506-1.507-7.616-7.618z"></path></svg>