<svg aria-hidden="true" focusable="false" data-prefix="far" data-icon="bell" class="svg" role="img" xmlns="http://www.w3.org/2000/svg" viewBox="0 0 24 24"><path d="M21.297 2.69C20.83 2.225 20.199 2 19.514 2c-1.005 0-2.132.481-3.036 1.387L14.41 5.455 6.144 4.082 2.697 7.528l6.536 3.105-1.028 1.026-3.44-.684-2.758 2.757L10.274 22l2.758-2.758-.684-3.442 1.026-1.025 3.109 6.541 3.447-3.447-1.379-8.271 2.067-2.069c1.524-1.524 1.827-3.69.679-4.839zm-2.056 3.459l-2.068 2.068-.71.71.165.99 1.214 7.282-.784.784-1.923-4.046-1.187-2.495-1.953 1.953-1.026 1.025-.737.738.203 1.021.48 2.42-.641.642-5.509-5.51.641-.643 2.42.482 1.021.202.737-.737 1.027-1.025 1.954-1.955-2.496-1.186-4.04-1.918.784-.784 7.278 1.208.988.165.709-.708 2.067-2.068c.603-.601 1.251-.815 1.658-.815.131 0 .305.021.403.119.248.249.181 1.226-.675 2.081z"></path></svg>